<svg width="35" height="28" viewBox="0 0 35 28" fill="none" xmlns="http://www.w3.org/2000/svg">
<path d="M35 26.6345C35 17.2772 33.5328 11.8797 30.4649 8.76064C27.5838 5.80426 23.5023 4.99058 18.0602 4.88209C18.0602 2.60378 18.5404 0 16.6997 0C15.7393 0 8.42988 4.85497 8.34985 4.69223L0.666921 9.1946C-0.213415 9.73705 -0.240091 11.0661 0.693598 11.5814L16.0328 20.5861C16.9398 21.1286 18.0602 20.4505 18.0602 19.3927V15.9482C25.1296 16.5177 29.2378 21.6168 32.4657 27.3126C33.1593 28.5331 35 28.0178 35 26.6345ZM28.5442 10.6863C30.545 12.7206 31.7188 16.1651 32.1189 21.7253C28.4375 16.6805 23.609 13.1274 16.6997 13.1274C14.9657 13.1274 15.3392 15.3515 15.3392 17.0059L4.05488 10.388L9.71037 7.07903L15.3392 3.74293C15.3392 5.42454 14.9657 7.64861 16.6997 7.64861C22.1418 7.64861 26.0899 8.19106 28.5442 10.6863Z" fill="white"/>
</svg>
